<svg width="60" height="60" viewBox="0 0 60 60" fill="none" xmlns="http://www.w3.org/2000/svg">
<g filter="url(#filter0_d_445_196)">
<rect x="49.5" y="49.5" width="39" height="39" rx="19.5" transform="rotate(-180 49.5 49.5)" stroke="#4762FF" shape-rendering="crispEdges"/>
</g>
<path d="M33.673 37.7062C34.0725 37.3182 34.0763 36.678 33.6814 36.2854L28.8109 31.4425C28.015 30.6512 28.026 29.3601 28.8351 28.5823L33.6617 23.9432C34.0745 23.5464 34.1012 22.8947 33.7223 22.4654C33.3103 21.9986 32.5881 21.9814 32.1544 22.428L26.1535 28.6066C25.3998 29.3827 25.3998 30.6174 26.1535 31.3935L32.2646 37.6856C32.6479 38.0802 33.2784 38.0894 33.673 37.7062Z" fill="#4762FF"/>
<defs>
<filter id="filter0_d_445_196" x="0" y="0" width="60" height="60" filterUnits="userSpaceOnUse" color-interpolation-filters="sRGB">
<feFlood flood-opacity="0" result="BackgroundImageFix"/>
<feColorMatrix in="SourceAlpha" type="matrix" values="0 0 0 0 0 0 0 0 0 0 0 0 0 0 0 0 0 0 127 0" result="hardAlpha"/>
<feOffset/>
<feGaussianBlur stdDeviation="5"/>
<feComposite in2="hardAlpha" operator="out"/>
<feColorMatrix type="matrix" values="0 0 0 0 0 0 0 0 0 0 0 0 0 0 0 0 0 0 0.15 0"/>
<feBlend mode="normal" in2="BackgroundImageFix" result="effect1_dropShadow_445_196"/>
<feBlend mode="normal" in="SourceGraphic" in2="effect1_dropShadow_445_196" result="shape"/>
</filter>
</defs>
</svg>
