<svg width="40" height="40" viewBox="0 0 40 40" fill="none" xmlns="http://www.w3.org/2000/svg">
<path d="M16.9103 22.9333C19.2297 25.2862 22.0362 27.1028 25.1325 28.2555L29.3214 24.9222C29.4456 24.8367 29.5928 24.7909 29.7436 24.7909C29.8944 24.7909 30.0417 24.8367 30.1658 24.9222L37.9436 29.9333C38.2389 30.1108 38.4889 30.3546 38.6737 30.6453C38.8586 30.936 38.9734 31.2657 39.009 31.6084C39.0445 31.9511 38.9999 32.2974 38.8787 32.6199C38.7574 32.9424 38.5628 33.2323 38.3103 33.4666L34.6658 37.0666C34.1439 37.5823 33.5025 37.9608 32.7987 38.1682C32.0949 38.3757 31.3507 38.4057 30.6325 38.2555C23.4683 36.7759 16.8649 33.3105 11.577 28.2555C6.40638 23.1502 2.82837 16.6542 1.27696 9.55551C1.1237 8.84844 1.15569 8.11377 1.36982 7.4227C1.58396 6.73163 1.97298 6.10759 2.49918 5.61107L6.27696 1.96662C6.51074 1.72638 6.79583 1.54215 7.1109 1.42771C7.42597 1.31327 7.76284 1.27159 8.0963 1.30579C8.42976 1.33999 8.75116 1.44918 9.03644 1.6252C9.32172 1.80121 9.56348 2.03949 9.74363 2.32218L14.9214 9.99996C15.0107 10.1205 15.0589 10.2666 15.0589 10.4166C15.0589 10.5667 15.0107 10.7127 14.9214 10.8333L11.5103 14.9333C12.6943 17.9677 14.5389 20.7004 16.9103 22.9333Z" fill="#4762FF"/>
</svg>
