<svg width="20" height="21" viewBox="0 0 20 21" fill="none" xmlns="http://www.w3.org/2000/svg">
<path d="M8.45563 11.9666C9.61535 13.1431 11.0186 14.0514 12.5667 14.6278L14.6612 12.9611C14.7233 12.9183 14.7969 12.8954 14.8723 12.8954C14.9477 12.8954 15.0213 12.9183 15.0834 12.9611L18.9723 15.4666C19.1199 15.5554 19.2449 15.6773 19.3374 15.8226C19.4298 15.968 19.4872 16.1329 19.505 16.3042C19.5227 16.4756 19.5004 16.6487 19.4398 16.8099C19.3792 16.9712 19.2819 17.1161 19.1556 17.2333L17.3334 19.0333C17.0725 19.2912 16.7517 19.4804 16.3998 19.5841C16.0479 19.6878 15.6758 19.7028 15.3167 19.6278C11.7346 18.8879 8.43293 17.1553 5.78897 14.6278C3.20368 12.0751 1.41468 8.82712 0.638967 5.27776C0.562337 4.92422 0.578331 4.55689 0.685398 4.21135C0.792466 3.86582 0.986976 3.5538 1.25008 3.30553L3.13897 1.48331C3.25586 1.36319 3.3984 1.27107 3.55594 1.21385C3.71347 1.15663 3.88191 1.13579 4.04864 1.15289C4.21537 1.16999 4.37607 1.22459 4.51871 1.3126C4.66135 1.40061 4.78223 1.51974 4.8723 1.66109L7.46119 5.49998C7.50584 5.56026 7.52995 5.63329 7.52995 5.70831C7.52995 5.78333 7.50584 5.85636 7.46119 5.91664L5.75563 7.96664C6.34762 9.48383 7.26993 10.8502 8.45563 11.9666V11.9666Z" fill="white"/>
</svg>
