<svg width="64" height="64" viewBox="0 0 64 64" fill="none"
    xmlns="http://www.w3.org/2000/svg">
    <g clip-path="url(#clip0_429_380)">
        <circle cx="32" cy="32" r="32" fill="#4762FF" fill-opacity="0.2"/>
        <circle cx="32" cy="32" r="26" fill="#4762FF" fill-opacity="0.5"/>
        <circle cx="32" cy="32" r="21" fill="#4762FF"/>
        <g clip-path="url(#clip1_429_380)">
            <path d="M30.4555 33.4666C31.6152 34.6431 33.0184 35.5514 34.5666 36.1278L36.6611 34.4611C36.7232 34.4183 36.7968 34.3954 36.8722 34.3954C36.9476 34.3954 37.0212 34.4183 37.0833 34.4611L40.9722 36.9666C41.1198 37.0554 41.2448 37.1773 41.3372 37.3226C41.4297 37.468 41.4871 37.6329 41.5048 37.8042C41.5226 37.9756 41.5003 38.1487 41.4397 38.3099C41.3791 38.4712 41.2818 38.6161 41.1555 38.7333L39.3333 40.5333C39.0723 40.7912 38.7516 40.9804 38.3997 41.0841C38.0478 41.1878 37.6757 41.2028 37.3166 41.1278C33.7345 40.3879 30.4328 38.6553 27.7888 36.1278C25.2036 33.5751 23.4146 30.3271 22.6388 26.7778C22.5622 26.4242 22.5782 26.0569 22.6853 25.7114C22.7923 25.3658 22.9869 25.0538 23.25 24.8055L25.1388 22.9833C25.2557 22.8632 25.3983 22.7711 25.5558 22.7139C25.7134 22.6566 25.8818 22.6358 26.0485 22.6529C26.2152 22.67 26.3759 22.7246 26.5186 22.8126C26.6612 22.9006 26.7821 23.0197 26.8722 23.1611L29.4611 27C29.5057 27.0603 29.5298 27.1333 29.5298 27.2083C29.5298 27.2833 29.5057 27.3564 29.4611 27.4166L27.7555 29.4666C28.3475 30.9838 29.2698 32.3502 30.4555 33.4666Z" fill="white"/>
        </g>
    </g>
    <defs>
        <clipPath id="clip0_429_380">
            <rect width="64" height="64" fill="white"/>
        </clipPath>
        <clipPath id="clip1_429_380">
            <rect width="20" height="20" fill="white" transform="translate(22 22)"/>
        </clipPath>
    </defs>
</svg>
