<svg width="14" height="14" viewBox="0 0 14 14" fill="none" xmlns="http://www.w3.org/2000/svg">
<path d="M11.144 3.47375C11.2038 3.41282 11.275 3.36442 11.3537 3.33137C11.4323 3.29833 11.5168 3.28131 11.6021 3.28131C11.6874 3.28131 11.7719 3.29833 11.8505 3.33137C11.9292 3.36442 12.0005 3.41282 12.0602 3.47375C12.3104 3.72662 12.3139 4.13525 12.0689 4.3925L6.89504 10.5087C6.8363 10.5733 6.76502 10.6251 6.68555 10.6611C6.60608 10.6971 6.5201 10.7165 6.43287 10.7182C6.34565 10.7198 6.259 10.7036 6.17824 10.6706C6.09747 10.6376 6.02429 10.5885 5.96317 10.5262L2.81492 7.336C2.6935 7.21217 2.62549 7.04567 2.62549 6.87225C2.62549 6.69883 2.6935 6.53232 2.81492 6.4085C2.87463 6.34757 2.9459 6.29917 3.02456 6.26612C3.10321 6.23308 3.18767 6.21606 3.27298 6.21606C3.35829 6.21606 3.44275 6.23308 3.5214 6.26612C3.60006 6.29917 3.67133 6.34757 3.73104 6.4085L6.40154 9.11487L11.1265 3.493C11.132 3.48624 11.1378 3.47981 11.144 3.47375Z" fill="white"/>
</svg>
