<svg width="30" height="42" viewBox="0 0 30 42" fill="none" xmlns="http://www.w3.org/2000/svg">
<path d="M14.7 19.95C13.3076 19.95 11.9723 19.3969 10.9877 18.4123C10.0031 17.4277 9.45 16.0924 9.45 14.7C9.45 13.3076 10.0031 11.9723 10.9877 10.9877C11.9723 10.0031 13.3076 9.45 14.7 9.45C16.0924 9.45 17.4277 10.0031 18.4123 10.9877C19.3969 11.9723 19.95 13.3076 19.95 14.7C19.95 15.3894 19.8142 16.0721 19.5504 16.7091C19.2865 17.346 18.8998 17.9248 18.4123 18.4123C17.9248 18.8998 17.346 19.2865 16.7091 19.5504C16.0721 19.8142 15.3894 19.95 14.7 19.95ZM14.7 0C10.8013 0 7.06231 1.54875 4.30553 4.30553C1.54875 7.06231 0 10.8013 0 14.7C0 25.725 14.7 42 14.7 42C14.7 42 29.4 25.725 29.4 14.7C29.4 10.8013 27.8513 7.06231 25.0945 4.30553C22.3377 1.54875 18.5987 0 14.7 0Z" fill="#4762FF"/>
</svg>
