<svg width="40" height="40" viewBox="0 0 40 40" fill="none" xmlns="http://www.w3.org/2000/svg">
<g clip-path="url(#clip0_795_1133)">
<path d="M0 16V32C0 33.0609 0.421427 34.0783 1.17157 34.8284C1.92172 35.5786 2.93913 36 4 36H36C37.0609 36 38.0783 35.5786 38.8284 34.8284C39.5786 34.0783 40 33.0609 40 32V16L20 24L0 16Z" fill="#4762FF"/>
<path d="M4 4C2.93913 4 1.92172 4.42143 1.17157 5.17157C0.421427 5.92172 0 6.93913 0 8L0 12L20 20L40 12V8C40 6.93913 39.5786 5.92172 38.8284 5.17157C38.0783 4.42143 37.0609 4 36 4H4Z" fill="#4762FF"/>
</g>
<defs>
<clipPath id="clip0_795_1133">
<rect width="40" height="40" fill="white"/>
</clipPath>
</defs>
</svg>
