<?xml version="1.0" standalone="no"?>
<!DOCTYPE svg PUBLIC "-//W3C//DTD SVG 20010904//EN"
 "http://www.w3.org/TR/2001/REC-SVG-20010904/DTD/svg10.dtd">
<svg version="1.0"
    xmlns="http://www.w3.org/2000/svg" width="2804.000000pt" height="769.000000pt" viewBox="0 0 2804.000000 769.000000" preserveAspectRatio="xMidYMid meet">
    <metadata>
Created by potrace 1.16, written by Peter Selinger 2001-2019
    </metadata>
    <g transform="translate(0.000000,769.000000) scale(0.100000,-0.100000)" fill="#000000" stroke="none">
        <path d="M6357 7683 c-11 -20 -280 -1333 -274 -1339 3 -4 127 25 274 64 668
177 1154 285 1473 326 140 18 230 25 230 17 0 -3 -27 -172 -60 -376 -32 -203
-57 -371 -55 -373 4 -4 2754 391 2825 405 23 4 22 3 -10 -24 -62 -51 -3295
-2551 -3297 -2549 -1 1 221 1027 242 1114 6 24 5 24 -47 17 -80 -11 -383 -88
-558 -143 -426 -133 -860 -315 -1410 -589 -732 -364 -1199 -718 -1378 -1043
-68 -124 -110 -326 -92 -449 18 -128 53 -195 147 -282 69 -63 173 -118 294
-153 121 -35 213 -47 395 -55 l161 -6 -208 -990 c-115 -545 -208 -1000 -209
-1013 l0 -22 842 2 842 3 298 1420 c163 781 297 1421 298 1423 0 1 312 2 693
2 942 0 1262 13 1607 66 694 106 1107 288 1500 661 208 197 354 402 500 698
165 337 255 632 301 990 20 152 17 534 -5 674 -64 418 -222 742 -495 1011
-248 246 -557 390 -991 464 -302 51 -232 49 -2092 53 -955 2 -1738 0 -1741 -4z"/>
        <path d="M14255 6988 c-9 -41 -265 -1587 -265 -1603 0 -13 25 -15 174 -15
l174 0 6 28 c3 15 22 124 41 242 19 118 37 225 40 238 5 22 6 22 206 22 234 0
301 11 429 72 149 72 275 221 325 388 78 262 -1 496 -200 593 -103 51 -156 57
-557 57 l-368 0 -5 -22z m645 -284 c110 -32 160 -123 140 -249 -23 -142 -110
-235 -248 -264 -69 -14 -312 -15 -312 0 0 14 80 501 85 517 7 19 266 16 335
-4z"/>
        <path d="M21062 6208 c-73 -442 -136 -811 -138 -820 -5 -17 8 -18 168 -18
l174 0 89 529 c49 292 92 527 95 525 2 -3 59 -240 125 -527 l121 -522 119 0
119 0 296 522 c162 287 298 524 301 527 4 5 -133 -842 -166 -1021 l-6 -33 173
0 173 0 124 741 c67 408 129 777 136 820 l12 79 -217 0 -218 0 -283 -492
c-156 -271 -298 -520 -317 -552 -24 -41 -37 -55 -42 -45 -4 8 -65 248 -134
534 -70 286 -130 528 -132 538 -5 15 -24 17 -222 17 l-217 0 -133 -802z"/>
        <path d="M24655 6888 c-2 -7 -14 -75 -26 -150 l-22 -138 -84 0 c-45 0 -83 -1
-83 -2 0 -2 -9 -55 -20 -118 -11 -63 -20 -121 -20 -127 0 -9 23 -13 80 -13 66
0 80 -3 80 -16 0 -8 -25 -163 -55 -344 -30 -181 -55 -344 -55 -363 0 -105 70
-207 166 -241 90 -32 329 -30 382 3 10 6 11 38 6 135 l-7 127 -56 -7 c-32 -3
-68 -1 -84 5 -55 21 -55 32 3 381 l53 320 117 0 116 0 18 113 c9 61 19 120 22
130 5 15 -5 17 -110 17 -86 0 -116 3 -116 13 0 6 9 64 20 127 31 179 49 160
-150 160 -128 0 -172 -3 -175 -12z"/>
        <path d="M16059 6609 c-150 -22 -262 -81 -379 -198 -140 -141 -206 -302 -217
-526 -9 -189 31 -308 137 -409 105 -100 197 -131 385 -130 111 1 141 5 210 27
184 60 320 179 410 357 95 189 117 428 55 591 -84 221 -312 331 -601 288z
m167 -278 c100 -45 138 -191 99 -375 -31 -148 -108 -266 -201 -312 -128 -62
-253 -19 -295 103 -17 49 -17 202 0 273 17 70 62 169 97 215 75 98 204 139
300 96z"/>
        <path d="M19290 6610 c-348 -55 -599 -380 -600 -775 0 -295 168 -471 470 -491
216 -15 416 54 550 189 51 50 120 157 120 184 0 6 -71 14 -157 20 -140 8 -159
8 -167 -6 -22 -39 -89 -90 -137 -106 -71 -24 -174 -23 -231 3 -86 38 -117 103
-110 230 l2 32 419 0 418 0 11 73 c22 141 24 185 12 263 -27 187 -131 312
-303 366 -71 22 -217 31 -297 18z m187 -281 c53 -26 91 -86 100 -158 4 -38 2
-52 -8 -56 -8 -3 -124 -4 -257 -3 l-243 3 31 62 c34 69 88 120 161 152 61 28
158 28 216 0z"/>
        <path d="M20775 6614 c-97 -25 -176 -81 -229 -163 -22 -34 -41 -61 -42 -61 -1
0 4 30 11 68 7 37 15 84 19 105 l7 37 -170 0 -169 0 -6 -27 c-12 -58 -196
-1173 -196 -1188 0 -13 24 -15 173 -15 l173 0 58 361 c51 310 63 370 88 420
34 67 71 102 146 137 48 22 64 24 160 21 l107 -4 24 148 c13 81 21 150 18 154
-8 8 -146 13 -172 7z"/>
        <path d="M23625 6610 c-150 -23 -269 -83 -380 -195 -129 -128 -201 -289 -224
-498 -33 -291 95 -495 349 -558 77 -19 277 -17 363 4 169 42 328 160 396 296
18 34 31 64 29 66 -2 1 -73 7 -158 12 l-155 9 -42 -47 c-59 -64 -125 -92 -225
-92 -109 0 -162 28 -200 103 -28 54 -38 139 -20 167 6 10 106 13 422 15 l415
3 12 70 c15 89 16 239 2 307 -52 246 -287 383 -584 338z m174 -278 c19 -9 48
-34 65 -55 25 -31 31 -49 34 -102 l4 -65 -252 0 -251 0 7 23 c27 90 101 165
199 204 47 18 154 16 194 -5z"/>
        <path d="M16880 6588 c0 -24 121 -1173 126 -1195 4 -23 6 -23 188 -23 l183 0
168 385 c93 211 171 383 173 381 4 -5 81 -706 82 -743 l0 -23 188 0 187 0 265
606 c146 333 267 610 268 615 2 6 -66 8 -173 7 l-178 -3 -163 -410 c-90 -225
-163 -399 -164 -385 0 14 -14 194 -30 400 -16 206 -30 381 -30 388 0 9 -41 12
-174 12 l-174 0 -137 -337 c-194 -477 -200 -491 -202 -468 -2 11 -12 169 -23
350 -11 182 -22 358 -26 393 l-6 62 -174 0 c-132 0 -174 -3 -174 -12z"/>
        <path d="M23132 4560 c-88 -13 -172 -105 -172 -190 0 -76 62 -143 144 -155
116 -18 236 79 236 190 0 106 -88 171 -208 155z"/>
        <path d="M14255 4448 c-9 -41 -265 -1587 -265 -1603 0 -13 25 -15 174 -15
l174 0 6 28 c9 45 266 1591 266 1602 0 6 -62 10 -175 10 -173 0 -175 0 -180
-22z"/>
        <path d="M27686 4458 c-6 -20 -266 -1601 -266 -1615 0 -10 41 -13 173 -13
l172 0 44 263 c24 144 85 513 135 820 l92 557 -173 0 c-130 0 -175 -3 -177
-12z"/>
        <path d="M16320 4210 l-24 -150 -83 0 c-46 0 -83 -1 -83 -2 -1 -2 -11 -60 -24
-130 l-23 -128 84 0 c45 0 83 -2 83 -4 0 -2 -25 -156 -55 -341 -30 -185 -55
-359 -55 -388 0 -158 131 -257 339 -257 73 1 204 19 216 31 1 2 0 60 -4 129
l-6 125 -73 0 c-65 0 -76 3 -93 24 -10 13 -19 34 -19 48 0 13 23 159 50 323
28 164 50 301 50 304 0 3 53 7 117 8 l117 3 22 128 21 127 -114 0 c-132 0
-122 -16 -93 150 11 63 20 123 20 133 0 15 -15 17 -173 17 l-173 0 -24 -150z"/>
        <path d="M22175 4338 c-6 -27 -45 -262 -45 -272 0 -3 -38 -6 -85 -6 -47 0 -85
-3 -85 -7 0 -5 -9 -60 -20 -123 -11 -63 -20 -118 -20 -122 0 -5 36 -8 80 -8
57 0 80 -4 80 -12 1 -7 -25 -170 -56 -363 -53 -324 -56 -354 -45 -407 17 -81
56 -130 135 -168 56 -28 80 -34 159 -38 89 -4 218 10 246 27 10 7 12 34 6 135
l-7 127 -57 -7 c-32 -3 -68 -1 -84 5 -53 20 -52 37 5 383 l53 318 116 0 116 0
17 108 c10 59 20 117 23 130 5 22 4 22 -111 22 -64 0 -116 3 -116 8 0 4 11 69
24 144 12 76 21 140 18 143 -3 3 -81 5 -173 5 -167 0 -169 0 -174 -22z"/>
        <path d="M15425 4069 c-111 -23 -232 -104 -285 -191 -25 -41 -26 -26 -5 92 8
47 15 86 15 88 0 1 -75 1 -167 0 l-167 -3 -98 -585 c-53 -322 -99 -597 -102
-612 l-5 -28 174 0 c173 0 175 0 180 23 3 12 30 175 60 362 31 187 62 361 71
387 19 60 82 130 140 158 57 28 153 31 204 7 45 -22 78 -71 86 -127 3 -31 -14
-157 -55 -405 -34 -198 -64 -370 -66 -382 l-5 -23 175 0 c173 0 175 0 180 23
3 12 35 200 71 417 74 443 78 519 35 615 -51 114 -160 183 -303 190 -46 2
-105 0 -133 -6z"/>
        <path d="M17495 4066 c-149 -28 -263 -93 -375 -213 -81 -87 -148 -210 -181
-338 -30 -113 -32 -314 -4 -400 45 -137 153 -242 298 -287 92 -29 295 -32 397
-5 109 29 222 90 292 160 55 54 128 165 128 195 0 5 -55 13 -127 16 -71 4
-141 9 -158 12 -25 4 -33 0 -47 -25 -21 -38 -90 -88 -142 -103 -23 -6 -70 -11
-107 -10 -147 1 -218 71 -219 215 l0 67 419 0 419 0 6 28 c30 144 32 264 6
367 -31 121 -83 195 -180 257 -100 64 -283 91 -425 64z m205 -276 c56 -29 91
-85 97 -159 l6 -61 -252 0 c-285 0 -276 -3 -222 81 38 60 85 104 145 134 65
33 168 35 226 5z"/>
        <path d="M18975 4067 c-97 -33 -169 -89 -221 -173 -28 -46 -28 -44 -9 66 8 47
15 88 15 93 0 4 -76 7 -170 7 -93 0 -170 -2 -170 -5 0 -3 -45 -275 -100 -605
-55 -330 -100 -604 -100 -610 0 -6 61 -10 173 -10 l174 0 61 370 c41 243 68
383 81 408 27 53 108 125 164 147 39 15 66 17 150 13 l103 -6 26 152 c14 83
24 153 23 154 -11 12 -165 10 -200 -1z"/>
        <path d="M19944 4065 c-102 -22 -201 -84 -256 -161 -17 -24 -33 -42 -36 -39
-5 4 14 143 24 178 5 16 -7 17 -163 17 l-168 0 -98 -592 c-54 -326 -101 -603
-104 -615 l-5 -23 176 0 c97 0 176 1 176 3 2 53 134 776 145 799 21 42 81 105
118 124 86 46 206 36 256 -22 60 -68 60 -77 -9 -489 -34 -203 -64 -380 -67
-392 l-5 -23 175 0 175 0 6 28 c33 161 136 816 136 866 0 255 -203 401 -476
341z"/>
        <path d="M21145 4069 c-185 -27 -348 -130 -432 -271 -58 -99 -66 -92 114 -107
l158 -12 15 23 c43 67 113 107 200 115 109 10 180 -38 180 -121 0 -55 -26 -89
-80 -105 -23 -7 -112 -21 -198 -31 -86 -11 -182 -26 -213 -34 -218 -57 -336
-189 -355 -396 -17 -176 83 -292 279 -322 152 -23 306 23 414 124 l56 53 -6
-35 c-4 -19 -9 -54 -13 -77 l-7 -43 167 0 c91 0 166 2 166 5 0 3 32 196 71
428 78 466 82 533 41 614 -78 151 -303 229 -557 192z m176 -759 c-14 -90 -38
-137 -96 -188 -56 -49 -119 -72 -197 -72 -78 0 -124 20 -144 63 -23 48 -12 98
32 147 42 47 88 63 245 90 63 10 126 23 139 28 14 5 27 8 28 7 2 -2 -1 -36 -7
-75z"/>
        <path d="M23955 4066 c-352 -69 -577 -363 -579 -756 0 -137 19 -213 74 -299
81 -126 209 -193 395 -207 289 -23 548 127 675 391 58 120 78 198 87 325 17
277 -107 473 -341 536 -76 21 -229 26 -311 10z m167 -266 c47 -14 101 -76 119
-138 41 -145 -17 -383 -121 -496 -57 -61 -115 -88 -194 -89 -79 -1 -120 21
-160 87 -27 42 -31 59 -34 141 -14 314 176 554 390 495z"/>
        <path d="M25535 4070 c-91 -19 -156 -52 -217 -108 -34 -32 -69 -70 -80 -87
-21 -35 -22 -23 -8 61 6 32 13 74 16 92 l5 32 -165 0 c-164 0 -166 0 -171 -22
-3 -13 -49 -290 -103 -615 l-99 -593 173 0 c172 0 174 0 179 23 3 12 30 173
60 357 31 184 63 359 72 388 33 109 134 184 248 185 109 1 170 -50 181 -150 3
-33 -16 -168 -59 -426 l-64 -377 176 2 175 3 68 405 c59 347 68 419 65 500 -2
72 -9 108 -26 148 -29 65 -109 140 -177 165 -56 21 -190 30 -249 17z"/>
        <path d="M26715 4070 c-196 -31 -361 -140 -441 -293 -20 -38 -34 -70 -32 -71
1 -2 72 -8 156 -15 l154 -12 40 46 c49 56 104 85 173 92 75 8 120 -3 155 -38
26 -26 30 -38 30 -83 0 -92 -27 -105 -271 -135 -250 -31 -353 -67 -450 -158
-91 -85 -145 -248 -119 -365 33 -155 148 -231 350 -232 159 -1 269 45 363 148
l28 31 -6 -45 c-3 -25 -8 -60 -11 -77 l-6 -33 165 0 165 0 6 28 c3 15 35 205
72 422 74 448 78 517 34 603 -40 79 -118 135 -240 171 -67 20 -234 28 -315 16z
m179 -753 c-16 -96 -34 -136 -78 -180 -56 -57 -110 -80 -197 -85 -59 -3 -84 0
-114 14 -71 33 -82 123 -24 189 39 44 106 71 225 90 77 12 192 38 200 44 1 1
-5 -32 -12 -72z"/>
        <path d="M22920 4055 c0 -3 -45 -275 -100 -605 -55 -330 -100 -604 -100 -610
0 -6 61 -10 173 -10 l174 0 97 588 c54 323 100 599 103 615 l6 27 -177 0 c-97
0 -176 -2 -176 -5z"/>
        <path d="M17959 1671 c-32 -33 -37 -65 -13 -99 54 -77 179 -22 159 69 -14 63
-95 80 -146 30z"/>
        <path d="M14136 1633 c-30 -145 -96 -586 -96 -639 0 -150 103 -248 273 -261
183 -13 340 65 416 206 28 54 38 95 86 383 30 178 55 326 55 331 0 4 -33 7
-73 7 l-73 0 -48 -292 c-26 -161 -54 -314 -62 -339 -31 -96 -128 -161 -240
-161 -118 0 -184 58 -184 161 0 31 22 185 49 344 l48 287 -73 0 c-71 0 -73 -1
-78 -27z"/>
        <path d="M15745 1628 c-3 -18 -34 -211 -70 -428 -36 -217 -68 -407 -71 -422
l-6 -28 70 0 70 0 9 51 8 52 25 -39 c38 -58 82 -79 166 -79 56 1 82 6 127 28
131 65 220 227 221 407 2 173 -86 272 -240 272 -74 -1 -127 -21 -176 -70 -21
-20 -38 -34 -38 -32 0 3 11 70 25 150 14 80 25 151 25 158 0 8 -21 12 -70 12
l-69 0 -6 -32z m341 -327 c111 -68 67 -345 -67 -420 -51 -29 -126 -32 -164 -7
-44 29 -69 98 -62 175 10 119 49 199 121 245 50 33 125 35 172 7z"/>
        <path d="M17255 1638 c-6 -28 -145 -869 -145 -880 0 -7 140 -12 140 -5 0 1 9
53 20 116 16 96 24 119 47 143 15 15 32 28 39 28 6 0 49 -65 95 -145 l84 -145
88 0 c80 0 87 1 78 18 -5 9 -56 96 -114 193 l-105 177 159 143 c88 78 159 146
159 151 0 4 -35 8 -78 8 l-79 0 -159 -144 c-87 -79 -160 -140 -162 -136 -2 6
29 206 73 468 l6 32 -70 0 c-65 0 -71 -2 -76 -22z"/>
        <path d="M18961 1537 c-6 -35 -11 -71 -11 -80 0 -14 -10 -17 -49 -17 -28 0
-52 -3 -54 -7 -3 -5 -8 -32 -12 -60 l-7 -53 46 0 c34 0 46 -4 46 -15 0 -8 -13
-98 -30 -200 -16 -102 -30 -204 -30 -226 0 -95 65 -143 186 -137 40 2 75 6 78
8 3 3 2 32 -1 63 -6 57 -7 58 -33 52 -37 -8 -78 10 -85 37 -3 13 10 111 28
218 l33 195 71 3 72 3 9 52 c4 29 7 55 5 60 -2 4 -34 7 -70 7 l-66 0 7 40 c3
22 9 58 12 80 l7 40 -71 0 -70 0 -11 -63z"/>
        <path d="M16717 1438 c-156 -21 -286 -165 -318 -353 -26 -152 19 -265 125
-320 54 -27 69 -30 150 -30 78 1 100 5 153 29 60 27 126 86 152 135 13 24 14
24 -63 40 -50 9 -50 9 -87 -29 -39 -40 -89 -60 -149 -59 -96 1 -150 53 -150
145 l0 54 244 0 245 0 6 45 c4 24 6 78 3 118 -5 101 -40 160 -118 199 -64 31
-112 37 -193 26z m120 -134 c35 -22 56 -62 57 -107 l1 -42 -172 -3 c-95 -1
-173 0 -173 3 0 21 46 89 81 118 64 56 149 68 206 31z"/>
        <path d="M18421 1439 c-29 -4 -79 -20 -110 -36 -133 -68 -171 -242 -68 -315
17 -13 83 -36 146 -53 91 -24 118 -35 133 -56 42 -56 -25 -121 -132 -127 -60
-4 -69 -2 -98 23 -18 15 -32 35 -32 45 0 10 -4 21 -9 24 -8 5 -132 -11 -139
-19 -11 -10 24 -95 51 -122 46 -49 106 -68 212 -67 75 0 99 4 145 25 107 50
160 120 160 213 0 93 -53 136 -215 175 -107 26 -135 42 -135 77 0 38 17 62 60
84 75 38 168 19 188 -40 12 -34 10 -34 85 -19 64 13 67 20 38 85 -39 86 -140
123 -280 103z"/>
        <path d="M19575 1438 c-33 -4 -83 -19 -112 -33 -51 -25 -133 -105 -133 -130 0
-7 27 -19 59 -27 l60 -15 28 30 c73 77 210 89 242 21 15 -35 14 -80 -4 -97
-15 -16 -31 -19 -174 -37 -203 -27 -290 -100 -291 -244 0 -115 66 -171 205
-171 87 0 136 18 187 69 l26 27 -5 -41 -6 -40 69 0 69 0 39 240 c42 262 44
327 8 377 -41 58 -150 87 -267 71z m125 -390 c0 -73 -55 -158 -117 -184 -18
-8 -57 -14 -86 -14 -69 0 -107 26 -107 74 0 69 47 100 194 126 56 9 104 18
109 19 4 0 7 -9 7 -21z"/>
        <path d="M20369 1439 c-58 -9 -106 -33 -143 -73 l-29 -31 8 53 7 53 -68 -3
-68 -3 -53 -315 c-28 -173 -54 -328 -57 -343 l-6 -28 72 3 72 3 36 215 c20
118 45 232 55 253 48 101 217 131 260 46 21 -40 19 -68 -20 -299 -19 -113 -35
-208 -35 -212 0 -5 31 -8 69 -8 68 0 70 1 75 28 23 111 76 451 75 480 -2 129
-106 205 -250 181z"/>
        <path d="M15006 1393 c-4 -27 -9 -56 -12 -65 -5 -17 8 -18 171 -18 l177 0 -74
-79 c-40 -44 -139 -149 -221 -234 -137 -143 -147 -158 -153 -201 l-7 -46 276
0 c308 0 279 -8 292 77 l7 43 -180 2 -180 3 140 150 c302 325 286 305 294 363
l7 52 -266 0 -265 0 -6 -47z"/>
        <path d="M17915 1418 c-3 -13 -29 -168 -58 -345 l-54 -323 71 0 71 0 54 323
c29 177 55 332 58 345 5 21 3 22 -66 22 -65 0 -71 -2 -76 -22z"/>
    </g>
</svg>
