<svg width="22" height="23" viewBox="0 0 22 23" fill="none" xmlns="http://www.w3.org/2000/svg">
<path d="M16.9249 16.2756L19.5232 18.8727C19.6444 18.9981 19.7115 19.1661 19.7099 19.3406C19.7084 19.515 19.6385 19.6818 19.5151 19.8052C19.3918 19.9285 19.2249 19.9985 19.0505 20C18.8761 20.0015 18.7081 19.9344 18.5826 19.8133L15.9843 17.2149C14.2863 18.6697 12.0909 19.4102 9.85872 19.2812C7.62653 19.1522 5.53107 18.1636 4.01205 16.5229C2.49303 14.8822 1.66853 12.7169 1.71156 10.4814C1.7546 8.24587 2.66181 6.11392 4.24285 4.53289C5.82388 2.95185 7.95583 2.04464 10.1913 2.0016C12.4268 1.95857 14.5921 2.78307 16.2328 4.30209C17.8735 5.82111 18.8621 7.91656 18.9912 10.1488C19.1202 12.381 18.3796 14.5764 16.9249 16.2743V16.2756ZM10.3579 17.9653C12.2986 17.9653 14.1598 17.1944 15.532 15.8221C16.9043 14.4498 17.6753 12.5886 17.6753 10.6479C17.6753 8.70723 16.9043 6.84602 15.532 5.47375C14.1598 4.10148 12.2986 3.33054 10.3579 3.33054C8.41719 3.33054 6.55599 4.10148 5.18371 5.47375C3.81144 6.84602 3.0405 8.70723 3.0405 10.6479C3.0405 12.5886 3.81144 14.4498 5.18371 15.8221C6.55599 17.1944 8.41719 17.9653 10.3579 17.9653V17.9653Z" fill="#4762FF"/>
</svg>
